<?xml version="1.0" encoding="UTF-8" ?>
<!DOCTYPE svg PUBLIC "-//W3C//DTD SVG 1.1//EN" "http://www.w3.org/Graphics/SVG/1.1/DTD/svg11.dtd">
<svg width="600pt" height="392pt" viewBox="0 0 600 392" version="1.1" xmlns="http://www.w3.org/2000/svg">
<path fill="#f5f5f5" opacity="1.00" d=" M 0.01 12.41 C 18.05 9.67 36.17 6.43 53.32 0.01 C 55.96 1.48 58.60 2.95 61.24 4.42 C 59.25 13.13 58.56 22.08 58.58 30.99 C 58.57 76.33 58.58 121.67 58.57 167.01 C 58.58 174.09 59.32 181.19 61.17 188.03 C 67.62 191.21 74.68 192.72 81.65 194.23 C 81.65 197.77 81.65 201.32 81.66 204.87 C 67.80 203.94 53.90 204.03 40.01 204.00 C 29.04 204.06 18.05 204.01 7.10 204.87 C 7.10 201.03 7.10 197.19 7.10 193.35 C 11.97 191.72 17.02 190.29 21.28 187.32 C 23.39 177.35 25.08 167.19 24.86 156.97 C 24.84 120.64 24.87 84.31 24.84 47.99 C 24.86 40.72 24.01 33.47 22.19 26.44 C 16.13 22.57 8.70 22.22 1.77 21.28 C 1.18 18.32 0.58 15.37 0.01 12.41 Z" />
<path fill="#f5f5f5" opacity="1.00" d=" M 296.42 63.18 C 303.29 58.73 312.02 57.67 319.97 59.19 C 329.27 61.33 337.58 67.05 343.53 74.43 C 337.31 83.63 331.07 92.81 324.85 102.00 C 321.90 102.00 318.95 102.00 316.01 102.00 C 314.17 95.85 311.16 88.11 303.94 87.02 C 296.59 86.61 290.44 91.59 284.91 95.79 C 284.91 120.21 284.90 144.62 284.92 169.04 C 284.92 174.86 285.60 180.73 287.54 186.25 C 296.09 189.74 305.11 191.86 314.20 193.34 C 314.20 197.18 314.20 201.03 314.20 204.88 C 287.88 204.31 261.52 203.21 235.21 204.87 C 235.21 201.34 235.21 197.80 235.20 194.27 C 239.66 193.39 244.12 191.97 247.66 189.01 C 249.22 181.82 250.22 174.46 249.52 167.10 C 249.27 152.72 249.48 138.34 249.41 123.95 C 249.32 112.12 249.92 100.11 247.45 88.46 C 242.66 84.36 235.80 84.40 229.88 83.36 C 229.59 80.41 229.29 77.45 229.00 74.49 C 243.90 71.74 258.14 66.32 271.60 59.42 C 273.95 60.60 276.31 61.78 278.67 62.96 C 279.21 68.57 280.05 74.18 281.48 79.63 C 281.86 79.95 282.61 80.59 282.98 80.90 C 287.48 75.01 291.51 68.74 296.42 63.18 Z" />
<path fill="#f5f5f5" opacity="1.00" d=" M 128.84 68.81 C 143.80 59.96 162.17 57.40 179.11 60.99 C 190.61 63.44 201.27 70.32 207.48 80.42 C 215.10 92.31 217.36 106.76 217.45 120.65 C 213.94 122.87 210.91 126.03 207.12 127.69 C 182.17 129.04 157.20 130.10 132.24 131.26 C 132.38 145.48 134.75 160.66 143.87 172.08 C 150.50 180.49 161.33 184.78 171.91 184.44 C 186.00 184.46 198.56 177.18 210.36 170.29 C 212.73 174.42 215.09 178.56 217.45 182.69 C 209.49 188.72 201.30 194.44 192.99 199.98 C 184.14 206.54 172.58 207.26 161.97 207.48 C 145.49 208.05 128.47 203.15 115.99 192.10 C 103.49 181.29 96.53 165.21 94.72 148.99 C 93.08 133.27 94.30 116.94 100.40 102.22 C 105.99 88.44 115.96 76.35 128.84 68.81 M 142.79 83.80 C 134.90 93.30 132.29 105.94 131.34 117.95 C 147.93 116.22 164.50 114.39 181.08 112.63 C 180.93 103.83 180.30 94.72 176.52 86.63 C 174.15 81.48 169.72 76.96 164.00 75.85 C 156.11 74.01 147.79 77.65 142.79 83.80 Z" />
<path fill="#f5f5f5" opacity="1.00" d=" M 414.46 66.57 C 418.83 62.42 425.06 61.31 430.79 60.29 C 443.09 58.73 456.20 58.94 467.65 64.22 C 475.44 67.78 481.59 74.46 484.83 82.35 C 488.12 90.12 489.02 98.66 489.05 107.03 C 489.05 127.67 489.06 148.32 489.05 168.96 C 489.05 174.48 489.09 180.34 491.81 185.31 C 497.44 190.11 505.12 191.05 512.13 192.46 C 512.12 196.30 512.12 200.14 512.13 203.98 C 487.58 203.42 462.99 202.33 438.46 203.98 C 438.46 200.15 438.46 196.32 438.46 192.49 C 442.80 191.66 447.05 190.30 450.90 188.08 C 453.02 176.86 453.70 165.39 453.55 153.98 C 453.54 137.64 453.58 121.30 453.53 104.96 C 453.44 98.41 452.37 91.28 447.75 86.30 C 443.54 81.78 437.00 80.48 431.06 80.76 C 420.84 81.19 411.39 85.85 402.95 91.32 C 402.96 113.87 402.95 136.41 402.96 158.95 C 403.04 168.11 402.20 177.59 405.60 186.32 C 410.71 190.36 417.11 192.04 423.37 193.34 C 423.37 197.19 423.37 201.03 423.37 204.88 C 399.71 204.22 376.01 203.28 352.36 204.87 C 352.37 201.34 352.37 197.80 352.36 194.27 C 357.06 193.33 361.84 192.03 365.69 189.03 C 367.82 178.84 369.52 168.46 369.23 158.01 C 369.23 142.66 369.23 127.32 369.23 111.97 C 369.24 104.58 368.84 97.18 367.63 89.89 C 367.60 87.79 365.38 86.96 363.78 86.22 C 359.27 84.54 354.45 83.97 349.70 83.36 C 349.41 80.41 349.11 77.45 348.82 74.50 C 364.02 72.29 378.51 66.91 392.31 60.31 C 394.66 61.48 397.01 62.66 399.37 63.84 C 399.59 67.69 400.08 71.52 400.85 75.29 C 400.90 76.61 401.76 77.53 402.77 78.25 C 406.62 74.32 410.34 70.24 414.46 66.57 Z" />
<path fill="#f5f5f5" opacity="1.00" d=" M 550.31 177.15 C 562.91 173.72 576.63 183.42 578.41 196.16 C 580.53 208.30 571.00 220.64 558.94 222.33 C 546.52 224.48 533.93 214.41 532.70 202.00 C 531.27 190.83 539.49 179.74 550.31 177.15 Z" />
<path fill="#f5f5f5" opacity="1.00" d=" M 130.02 246.88 C 137.41 243.19 145.85 242.36 153.99 242.16 C 164.75 242.02 176.08 243.62 185.13 249.83 C 192.70 254.98 197.55 263.37 199.59 272.18 C 201.40 279.32 201.53 286.74 201.48 294.06 C 201.48 314.05 201.48 334.04 201.48 354.03 C 201.53 358.75 201.91 363.69 204.18 367.93 C 209.77 372.83 217.54 373.73 224.55 375.15 C 224.54 378.99 224.55 382.84 224.54 386.68 C 200.00 386.11 175.42 385.02 150.89 386.69 C 150.89 382.85 150.89 379.02 150.89 375.19 C 155.22 374.34 159.47 373.00 163.31 370.80 C 164.99 362.67 165.45 354.36 165.95 346.10 C 166.00 326.73 165.97 307.36 165.97 287.99 C 165.89 281.52 164.94 274.52 160.57 269.44 C 156.53 264.72 149.96 263.22 143.99 263.43 C 133.59 263.74 123.94 268.46 115.38 274.03 C 115.39 300.38 115.38 326.73 115.39 353.07 C 115.45 358.43 115.94 363.96 118.16 368.90 C 122.99 373.27 129.63 374.63 135.80 376.04 C 135.79 379.87 135.80 383.71 135.79 387.55 C 112.14 386.93 88.44 385.97 64.80 387.57 C 64.79 384.03 64.79 380.49 64.80 376.95 C 69.48 376.04 74.21 374.70 78.09 371.80 C 79.80 364.30 81.65 356.75 81.63 349.01 C 81.69 331.01 81.64 313.00 81.66 295.00 C 81.69 286.99 81.23 278.96 79.86 271.06 C 74.78 267.25 68.18 266.94 62.13 266.06 C 61.83 263.10 61.54 260.15 61.25 257.19 C 76.45 255.02 90.94 249.61 104.73 243.00 C 107.08 244.18 109.43 245.35 111.78 246.52 C 112.09 251.00 112.64 255.48 113.69 259.84 C 114.09 260.06 114.89 260.50 115.29 260.72 C 120.23 256.15 124.42 250.70 130.02 246.88 Z" />
<path fill="#f5f5f5" opacity="1.00" d=" M 282.01 246.03 C 290.49 243.75 299.20 241.57 308.06 242.25 C 318.40 242.74 329.57 245.17 336.97 252.96 C 344.05 260.40 346.01 271.11 346.12 281.02 C 346.19 296.35 346.13 311.68 346.15 327.00 C 346.26 339.10 345.39 351.41 348.49 363.25 C 349.35 365.91 349.49 369.31 352.10 370.93 C 357.68 374.85 364.43 376.45 371.01 377.81 C 371.01 381.35 371.00 384.90 371.01 388.44 C 354.48 387.14 337.81 387.14 321.35 389.34 C 321.02 383.43 319.96 377.58 318.34 371.89 C 311.55 376.06 306.16 382.09 299.62 386.59 C 293.03 390.81 285.03 391.84 277.36 392.00 L 273.91 392.00 C 264.48 391.62 254.50 389.24 247.58 382.42 C 240.80 375.86 238.20 366.19 237.94 357.00 C 237.43 346.91 240.19 336.47 246.59 328.53 C 248.15 326.59 250.64 325.84 252.79 324.78 C 271.66 316.69 291.70 311.92 311.54 306.87 C 311.35 296.58 312.11 286.21 310.65 275.99 C 309.80 269.92 306.72 263.44 300.54 261.33 C 292.30 258.61 283.40 260.18 275.05 261.59 C 272.41 270.21 272.44 279.31 272.48 288.23 C 268.26 289.44 264.07 290.78 259.85 291.99 C 256.17 293.08 252.29 292.58 248.52 292.66 C 247.56 281.70 246.82 270.71 244.97 259.85 C 256.88 254.18 269.33 249.65 282.01 246.03 M 283.22 329.23 C 277.86 331.62 275.50 337.70 274.64 343.14 C 273.93 349.24 274.02 356.05 277.67 361.28 C 281.25 366.36 288.07 367.72 293.91 366.96 C 300.53 366.25 306.23 362.54 311.53 358.78 C 311.56 345.61 311.53 332.44 311.54 319.28 C 301.94 322.07 292.20 324.73 283.22 329.23 Z" />
<path fill="#f5f5f5" opacity="1.00" d=" M 517.46 255.41 C 535.50 252.67 553.62 249.46 570.76 243.01 C 573.09 244.49 575.44 245.93 577.79 247.39 C 574.29 262.34 575.29 277.78 575.15 293.01 C 575.15 313.02 575.14 333.04 575.15 353.05 C 575.14 359.03 576.13 364.97 577.76 370.71 C 584.96 373.50 592.44 375.46 600.00 377.00 L 600.00 387.55 C 586.99 387.50 573.99 386.76 560.98 386.70 C 548.52 386.78 536.08 387.51 523.67 388.45 C 523.66 384.62 523.66 380.80 523.67 376.98 C 528.97 375.78 534.25 374.11 538.74 370.94 C 540.55 362.41 541.99 353.76 542.30 345.03 C 542.32 327.68 542.30 310.33 542.31 292.98 C 542.39 285.00 541.68 277.00 539.58 269.29 C 533.42 265.69 526.15 265.15 519.23 264.28 C 518.64 261.33 518.04 258.37 517.46 255.41 Z" />
<path fill="#f5f5f5" opacity="1.00" d=" M 361.25 247.47 C 384.03 247.47 406.80 247.47 429.58 247.47 C 429.58 251.87 429.57 256.28 429.59 260.68 C 423.86 260.81 418.27 262.10 412.72 263.41 C 412.50 264.07 412.06 265.39 411.84 266.05 C 421.00 295.04 430.19 324.01 439.35 353.00 C 440.01 353.00 441.34 353.00 442.00 353.00 C 451.18 323.73 460.34 294.46 469.52 265.19 C 469.30 264.52 468.86 263.17 468.64 262.50 C 462.87 260.81 456.88 260.03 450.88 259.82 C 450.89 255.39 450.88 250.96 450.89 246.54 C 470.71 246.54 490.53 246.54 510.35 246.54 C 510.35 250.05 510.35 253.56 510.35 257.08 C 504.89 258.81 499.67 261.52 495.34 265.28 C 479.74 306.84 464.56 348.58 449.12 390.20 C 439.94 390.20 430.76 390.20 421.59 390.20 C 405.61 348.21 389.63 306.23 373.65 264.25 C 369.72 262.43 365.55 261.09 361.23 260.66 C 361.26 256.26 361.24 251.86 361.25 247.47 Z" />
</svg>
