<?xml version="1.0" encoding="UTF-8" ?>
<!DOCTYPE svg PUBLIC "-//W3C//DTD SVG 1.1//EN" "http://www.w3.org/Graphics/SVG/1.1/DTD/svg11.dtd">
<svg width="600pt" height="392pt" viewBox="0 0 600 392" version="1.1" xmlns="http://www.w3.org/2000/svg">
<path fill="#207786" opacity="1.00" d=" M 0.01 12.41 C 18.05 9.67 36.16 6.44 53.31 0.02 C 55.96 1.47 58.59 2.95 61.23 4.43 C 59.26 13.13 58.56 22.07 58.58 30.97 C 58.57 76.30 58.58 121.63 58.57 166.95 C 58.57 174.05 59.34 181.17 61.16 188.04 C 67.62 191.19 74.67 192.72 81.66 194.23 C 81.65 197.78 81.65 201.32 81.66 204.87 C 68.45 203.98 55.21 204.03 41.98 204.00 C 30.35 204.05 18.71 203.97 7.10 204.87 C 7.10 201.03 7.10 197.19 7.11 193.35 C 11.99 191.75 16.99 190.25 21.29 187.34 C 23.12 178.68 24.60 169.91 24.85 161.05 C 24.84 123.36 24.87 85.66 24.84 47.97 C 24.87 40.71 23.99 33.46 22.21 26.42 C 16.11 22.60 8.71 22.21 1.77 21.27 C 1.18 18.32 0.59 15.37 0.01 12.41 Z" />
<path fill="#207786" opacity="1.00" d=" M 294.01 65.98 C 297.27 61.10 303.52 59.63 308.97 58.80 C 322.34 56.87 335.35 64.29 343.54 74.44 C 337.29 83.62 331.08 92.81 324.85 102.00 C 321.90 102.00 318.96 102.00 316.02 101.99 C 314.14 95.86 311.17 88.11 303.94 87.03 C 296.59 86.60 290.44 91.59 284.91 95.79 C 284.91 120.19 284.90 144.59 284.92 168.99 C 284.90 174.84 285.62 180.71 287.54 186.26 C 296.09 189.72 305.10 191.87 314.20 193.34 C 314.20 197.18 314.20 201.03 314.20 204.88 C 287.88 204.32 261.52 203.21 235.21 204.87 C 235.21 201.34 235.21 197.81 235.21 194.28 C 239.24 193.36 243.45 192.33 246.75 189.68 C 247.84 188.93 247.86 187.51 248.19 186.36 C 249.59 179.94 250.02 173.34 249.51 166.80 C 249.29 153.86 249.48 140.92 249.41 127.99 C 249.30 115.33 249.97 102.58 247.83 90.04 C 247.82 87.83 245.54 86.90 243.82 86.18 C 239.36 84.50 234.58 84.00 229.88 83.35 C 229.58 80.40 229.29 77.45 229.00 74.50 C 243.90 71.73 258.15 66.31 271.61 59.42 C 273.95 60.60 276.31 61.77 278.65 62.96 C 279.32 68.53 279.87 74.22 281.57 79.58 C 281.91 79.93 282.60 80.62 282.94 80.97 C 286.64 75.98 290.24 70.91 294.01 65.98 Z" />
<path fill="#207786" opacity="1.00" d=" M 132.72 66.70 C 146.44 59.77 162.49 57.87 177.55 60.66 C 188.71 62.74 199.31 68.75 205.90 78.12 C 214.77 90.34 217.36 105.86 217.45 120.65 C 213.86 122.85 210.86 126.23 206.90 127.69 C 182.02 129.05 157.12 130.10 132.23 131.26 C 132.39 145.49 134.75 160.68 143.89 172.10 C 150.33 180.25 160.74 184.57 171.02 184.44 C 185.43 184.76 198.32 177.33 210.36 170.29 C 212.73 174.43 215.10 178.56 217.45 182.70 C 209.48 188.72 201.28 194.44 192.98 199.99 C 184.14 206.52 172.61 207.25 162.01 207.49 C 145.73 208.03 128.91 203.29 116.46 192.51 C 103.80 181.79 96.67 165.71 94.77 149.45 C 92.93 132.64 94.42 115.08 101.54 99.58 C 107.86 85.55 118.89 73.57 132.72 66.70 M 145.21 81.30 C 135.38 90.71 132.42 104.89 131.33 117.95 C 147.92 116.23 164.50 114.38 181.09 112.63 C 180.80 101.82 180.15 89.81 172.91 81.11 C 165.93 72.94 152.46 74.07 145.21 81.30 Z" />
<path fill="#207786" opacity="1.00" d=" M 414.48 66.55 C 418.64 62.60 424.53 61.45 429.98 60.41 C 441.07 58.86 452.67 58.91 463.39 62.48 C 470.77 64.96 477.45 69.75 481.65 76.36 C 487.54 85.40 489.03 96.49 489.05 107.07 C 489.06 128.38 489.05 149.69 489.05 171.00 C 489.06 175.38 489.42 179.87 491.10 183.96 C 491.63 185.63 493.23 186.52 494.64 187.35 C 499.99 190.39 506.16 191.30 512.12 192.45 C 512.13 196.29 512.13 200.14 512.13 203.98 C 487.58 203.42 462.99 202.34 438.46 203.98 C 438.46 200.15 438.46 196.33 438.47 192.50 C 442.80 191.64 447.05 190.28 450.91 188.09 C 452.99 176.87 453.72 165.42 453.55 154.02 C 453.54 137.66 453.58 121.30 453.53 104.94 C 453.43 98.18 452.28 90.72 447.23 85.78 C 442.73 81.41 436.07 80.39 430.05 80.82 C 420.20 81.50 411.12 86.03 402.95 91.32 C 402.96 117.54 402.96 143.76 402.95 169.99 C 403.03 175.47 403.43 181.16 405.75 186.21 C 410.57 190.60 417.22 191.91 423.37 193.35 C 423.37 197.19 423.37 201.03 423.37 204.87 C 399.71 204.22 376.01 203.28 352.36 204.87 C 352.37 201.33 352.37 197.81 352.37 194.28 C 357.08 193.33 361.84 191.99 365.72 189.03 C 367.72 179.15 369.43 169.12 369.25 159.01 C 369.22 143.33 369.24 127.66 369.23 111.99 C 369.22 104.61 368.86 97.20 367.64 89.92 C 367.59 87.80 365.36 86.94 363.73 86.21 C 359.24 84.51 354.43 84.00 349.70 83.35 C 349.41 80.40 349.11 77.45 348.82 74.50 C 364.02 72.29 378.51 66.91 392.31 60.31 C 394.66 61.48 397.00 62.66 399.35 63.84 C 399.65 67.68 400.04 71.52 400.85 75.29 C 400.92 76.59 401.87 77.45 402.73 78.30 C 406.60 74.34 410.34 70.24 414.48 66.55 Z" />
<path fill="#207786" opacity="1.00" d=" M 550.30 177.16 C 563.52 173.51 577.88 184.43 578.62 197.95 C 579.75 210.61 568.60 222.57 555.94 222.59 C 543.76 222.92 532.65 212.15 532.56 199.97 C 532.25 189.47 540.16 179.61 550.30 177.16 Z" />
<path fill="#207786" opacity="1.00" d=" M 129.98 246.92 C 136.43 243.60 143.81 242.67 150.96 242.25 C 161.29 241.82 172.06 242.74 181.38 247.57 C 188.27 251.08 193.75 257.09 196.87 264.15 C 200.51 272.23 201.47 281.23 201.48 290.02 C 201.50 311.67 201.46 333.32 201.49 354.97 C 201.69 359.51 201.92 364.50 204.59 368.35 C 210.26 372.82 217.68 373.79 224.56 375.15 C 224.55 379.00 224.55 382.84 224.55 386.68 C 200.00 386.11 175.42 385.02 150.89 386.68 C 150.88 382.85 150.88 379.03 150.89 375.20 C 155.23 374.33 159.49 372.97 163.34 370.77 C 165.46 359.33 166.16 347.65 165.98 336.04 C 165.97 320.02 166.00 304.00 165.96 287.98 C 165.89 281.50 164.94 274.50 160.56 269.42 C 156.52 264.71 149.96 263.23 143.99 263.43 C 133.59 263.74 123.94 268.46 115.37 274.04 C 115.40 300.39 115.37 326.74 115.39 353.09 C 115.38 357.42 115.84 361.78 117.03 365.95 C 117.50 367.34 117.82 368.98 119.18 369.80 C 124.00 373.43 130.03 374.73 135.79 376.05 C 135.79 379.88 135.79 383.71 135.79 387.55 C 112.14 386.94 88.44 385.97 64.80 387.57 C 64.79 384.03 64.79 380.50 64.80 376.97 C 69.49 376.03 74.20 374.68 78.10 371.80 C 79.78 364.31 81.65 356.78 81.63 349.06 C 81.69 330.72 81.64 312.38 81.65 294.04 C 81.68 286.34 81.13 278.64 79.87 271.04 C 74.75 267.30 68.20 266.92 62.13 266.05 C 61.83 263.10 61.54 260.15 61.25 257.20 C 76.45 255.02 90.94 249.60 104.74 243.01 C 107.08 244.18 109.42 245.35 111.77 246.51 C 112.13 250.97 112.56 255.46 113.72 259.80 C 114.10 260.03 114.86 260.50 115.24 260.73 C 120.23 256.22 124.36 250.71 129.98 246.92 Z" />
<path fill="#207786" opacity="1.00" d=" M 281.25 246.24 C 290.30 243.75 299.63 241.43 309.09 242.30 C 319.12 242.91 329.87 245.44 337.01 253.01 C 344.06 260.44 346.00 271.12 346.12 281.01 C 346.19 300.32 346.14 319.64 346.14 338.96 C 346.08 349.24 346.61 359.91 350.59 369.51 C 356.07 374.70 363.88 376.20 371.00 377.82 C 371.01 381.36 371.01 384.89 371.01 388.43 C 354.48 387.14 337.82 387.14 321.37 389.34 C 321.00 383.42 319.94 377.56 318.36 371.86 C 311.78 375.94 306.49 381.70 300.21 386.19 C 294.16 390.36 286.68 391.56 279.49 392.00 L 273.36 392.00 C 265.24 391.52 256.84 389.75 250.25 384.72 C 244.03 380.10 240.25 372.82 238.86 365.30 C 236.96 355.04 237.66 343.96 242.63 334.63 C 244.56 331.13 246.67 327.22 250.65 325.75 C 270.10 317.01 290.97 312.14 311.54 306.86 C 311.33 296.58 312.11 286.23 310.66 276.01 C 309.81 269.95 306.74 263.47 300.57 261.35 C 292.30 258.59 283.34 260.19 274.96 261.62 C 272.51 270.27 272.40 279.31 272.47 288.23 C 264.66 290.54 256.85 293.69 248.52 292.67 C 247.56 281.70 246.81 270.71 244.97 259.84 C 256.65 254.29 268.84 249.83 281.25 246.24 M 283.19 329.23 C 277.58 331.82 275.25 338.30 274.53 344.03 C 273.93 350.31 274.21 357.50 278.63 362.46 C 282.71 366.92 289.33 367.75 295.02 366.80 C 301.23 365.82 306.62 362.34 311.57 358.66 C 311.49 345.53 311.56 332.40 311.54 319.28 C 301.93 322.07 292.18 324.75 283.19 329.23 Z" />
<path fill="#207786" opacity="1.00" d=" M 517.46 255.42 C 535.50 252.67 553.62 249.45 570.77 243.02 C 573.10 244.48 575.44 245.94 577.78 247.39 C 575.94 255.81 575.15 264.42 575.15 273.03 C 575.14 299.69 575.14 326.35 575.15 353.02 C 575.13 359.00 576.16 364.94 577.74 370.70 C 584.95 373.50 592.44 375.44 600.00 377.01 L 600.00 387.55 C 586.98 387.51 573.98 386.75 560.96 386.70 C 548.51 386.77 536.08 387.52 523.67 388.45 C 523.66 384.63 523.66 380.81 523.67 377.00 C 528.98 375.78 534.23 374.06 538.76 370.95 C 540.79 361.09 542.47 351.08 542.33 340.98 C 542.29 325.31 542.32 309.65 542.32 293.98 C 542.43 285.66 541.75 277.31 539.60 269.26 C 533.39 265.75 526.17 265.12 519.23 264.27 C 518.64 261.32 518.05 258.37 517.46 255.42 Z" />
<path fill="#207786" opacity="1.00" d=" M 361.25 247.47 C 384.03 247.47 406.80 247.47 429.58 247.47 C 429.58 251.87 429.58 256.27 429.59 260.67 C 423.86 260.85 418.25 262.07 412.70 263.41 C 412.49 264.08 412.06 265.40 411.84 266.06 C 421.00 295.04 430.19 324.02 439.35 353.00 C 440.01 353.00 441.34 353.00 442.00 353.00 C 451.18 323.73 460.35 294.46 469.52 265.19 C 469.31 264.51 468.87 263.16 468.65 262.49 C 462.87 260.82 456.88 260.04 450.89 259.81 C 450.89 255.38 450.88 250.96 450.89 246.53 C 470.71 246.53 490.53 246.53 510.35 246.54 C 510.36 250.04 510.36 253.55 510.35 257.06 C 505.33 258.67 500.57 261.11 496.41 264.34 C 495.58 264.93 495.01 265.71 494.71 266.68 C 479.51 307.85 464.32 349.03 449.12 390.20 C 439.94 390.20 430.77 390.20 421.59 390.20 C 405.61 348.21 389.62 306.23 373.66 264.24 C 369.72 262.43 365.55 261.13 361.23 260.63 C 361.25 256.24 361.24 251.86 361.25 247.47 Z" />
</svg>
